<?xml version="1.0" standalone="no"?><!DOCTYPE svg PUBLIC "-//W3C//DTD SVG 1.1//EN" "http://www.w3.org/Graphics/SVG/1.1/DTD/svg11.dtd"><svg t="1781164953295" class="icon" viewBox="0 0 1024 1024" version="1.1" xmlns="http://www.w3.org/2000/svg" p-id="31607" xmlns:xlink="http://www.w3.org/1999/xlink" width="200" height="200"><path d="M227.328 830.464c-16.384 0-31.744-10.24-37.888-26.624-7.168-20.48 3.072-43.008 24.576-51.2L774.144 552.96c20.48-7.168 43.008 3.072 51.2 24.576 7.168 20.48-3.072 43.008-24.576 51.2L240.64 828.416c-4.096 1.024-9.216 2.048-13.312 2.048zM28.672 517.12c-3.072-4.096-2.048-10.24 3.072-12.288 13.312-5.12 33.792-12.288 48.128-17.408 11.264-4.096 24.576-3.072 34.816 3.072 21.504 11.264 57.344 30.72 75.776 40.96 7.168 4.096 15.36 5.12 23.552 2.048 34.816-12.288 132.096-48.128 154.624-56.32 4.096-2.048 6.144-7.168 3.072-11.264L162.816 141.312c-3.072-4.096-1.024-10.24 4.096-11.264 17.408-7.168 57.344-21.504 78.848-29.696 6.144-2.048 9.216-1.024 14.336 2.048 116.736 92.16 233.472 185.344 349.184 277.504 6.144 5.12 10.24 5.12 17.408 3.072 92.16-33.792 185.344-67.584 278.528-101.376 43.008-15.36 86.016 10.24 92.16 55.296 5.12 30.72-14.336 61.44-46.08 72.704-72.704 26.624-146.432 53.248-219.136 79.872L222.208 675.84c-36.864 13.312-64.512 3.072-88.064-27.648-17.408-24.576-83.968-104.448-105.472-131.072z" fill="#FE765F" p-id="31608"></path><path d="M227.328 978.944c-16.384 0-31.744-10.24-37.888-26.624-7.168-20.48 3.072-44.032 23.552-51.2l286.72-105.472c20.48-7.168 44.032 3.072 51.2 23.552 7.168 20.48-3.072 44.032-23.552 51.2l-286.72 105.472c-4.096 2.048-9.216 3.072-13.312 3.072z" fill="#F4C9A8" p-id="31609"></path></svg>