<?xml version="1.0" standalone="no"?><!DOCTYPE svg PUBLIC "-//W3C//DTD SVG 1.1//EN" "http://www.w3.org/Graphics/SVG/1.1/DTD/svg11.dtd"><svg t="1781162913289" class="icon" viewBox="0 0 1024 1024" version="1.1" xmlns="http://www.w3.org/2000/svg" p-id="6303" xmlns:xlink="http://www.w3.org/1999/xlink" width="200" height="200"><path d="M641.4848 127.872c18.8416-20.7872 66.9184-55.9872 120.5504-41.984 4.48 1.2032 4.9408 13.9008 0 13.952-6.144 0-61.2096-8.832-98.5856 37.3248a375.68 375.68 0 0 1 209.0496 258.432c9.1392-0.768 18.2272-1.1776 26.7776-1.1776a82.0736 82.0736 0 1 1 0 164.1216c-7.9872 0-16.4352-2.1504-24.9856-5.76-25.9072 130.4576-117.7088 240.896-238.7456 287.8464v100.6592h-84.4288v-79.4112c-14.6176 1.8432-29.4912 2.9696-44.5696 2.9696-12.3392 0-24.4992-0.7168-36.48-1.9712v78.4128h-84.4032v-98.0736c-122.5984-45.1584-213.888-156.6208-239.616-289.024-7.296 2.688-14.4384 4.352-21.248 4.352a82.0992 82.0992 0 0 1 0-164.1216c7.2704 0 14.9504 0.2816 22.7328 0.8448 24.8576-115.0976 100.7104-210.1248 203.776-258.304-37.3248-45.8752-92.16-37.12-98.304-37.12-4.9664-0.0256-4.5056-12.7744 0-13.952 53.376-13.9264 101.1712 20.9152 120.192 41.728a366.592 366.592 0 0 1 133.3504-24.8576c47.5648 0 93.056 8.96 134.9376 25.1136z" fill="#E34D56" p-id="6304"></path><path d="M385.6128 269.824a46.9248 46.9248 0 0 1 0 93.7984 46.9248 46.9248 0 0 1 0-93.7728z m8.9088 24.9344l0 0zM635.4944 269.824a46.9248 46.9248 0 0 1 0 93.7984 46.9248 46.9248 0 0 1 0-93.7728z m8.9088 24.9344a14.08 14.08 0 1 0 0.0256 28.1856 14.08 14.08 0 0 0 0-28.1856z" fill="#000000" p-id="6305"></path></svg>